# xmcd CD database file
#
# Track frame offsets:
#	150
#	13881
#	28210
#	42407
#	58054
#	74644
#	91360
#	108744
#	122466
#	137811
#	155043
#	174762
#	190269
#	206214
#	222416
#
# Disc length: 3281 seconds
#
# Revision: 6
# Processed by: cddbd v1.5.2PL0 Copyright (c) Steve Scherf et al.
# Submitted via: jetAudio 7
#
DISCID=e90ccf0f
DTITLE=Mississippi Blues Band - Yo Estuve Ahí (En vivo)
DYEAR=1900
DGENRE=blues
TTITLE0=El Fierro
TTITLE1=Blues del Equipaje
TTITLE2=Ahora Vengo
TTITLE3=La Misma Moneda
TTITLE4=Mala Transa
TTITLE5=San Cayetano
TTITLE6=Un Poco Más
TTITLE7=Piso de Madera
TTITLE8=Matadero
TTITLE9=El detalle
TTITLE10=Ella
TTITLE11=La Danza de la Lluvia
TTITLE12=Tres Palabras
TTITLE13=Un Trago Para Ver Mejor
TTITLE14=Café Madrid
EXTD=
EXTT0=
EXTT1=
EXTT2=
EXTT3=
EXTT4=
EXTT5=
EXTT6=
EXTT7=
EXTT8=
EXTT9=
EXTT10=
EXTT11=
EXTT12=
EXTT13=
EXTT14=
PLAYORDER=
